<?xml version="1.0" encoding="UTF-8"?>
<!--Generator: Apple Native CoreSVG 232.5-->
<!DOCTYPE svg
PUBLIC "-//W3C//DTD SVG 1.1//EN"
       "http://www.w3.org/Graphics/SVG/1.1/DTD/svg11.dtd">
<svg version="1.1" xmlns="http://www.w3.org/2000/svg" xmlns:xlink="http://www.w3.org/1999/xlink" width="21.2109" height="17.4316">
 <g>
  <rect height="17.4316" opacity="0" width="21.2109" x="0" y="0"/>
  <path d="M20.0195 8.37891C19.541 8.37891 19.1895 8.73047 19.1895 9.20898L19.1895 10.1367C19.1895 11.8164 18.0469 12.9004 16.2695 12.9004L8.65234 12.9004L8.65234 10.6348C8.65234 10.2344 8.42773 10.0195 8.02734 10.0195C7.8418 10.0195 7.66602 10.0781 7.51953 10.1953L3.82812 13.252C3.51562 13.5254 3.50586 13.916 3.82812 14.1797L7.51953 17.2461C7.66602 17.3633 7.8418 17.4316 8.02734 17.4316C8.42773 17.4316 8.65234 17.207 8.65234 16.8164L8.65234 14.5312L16.1133 14.5312C18.9844 14.5312 20.8496 12.9004 20.8496 10.2539L20.8496 9.20898C20.8496 8.73047 20.4883 8.37891 20.0195 8.37891Z" fill="#000000" fill-opacity="0.85"/>
  <path d="M0.830078 9.07227C1.29883 9.07227 1.66016 8.71094 1.66016 8.24219L1.66016 7.31445C1.66016 5.63477 2.80273 4.54102 4.57031 4.54102L12.1875 4.54102L12.1875 6.83594C12.1875 7.22656 12.4219 7.45117 12.8223 7.45117C12.998 7.45117 13.1836 7.38281 13.3203 7.26562L17.0117 4.20898C17.3242 3.95508 17.3438 3.55469 17.0117 3.28125L13.3203 0.214844C13.1836 0.0976562 12.998 0.0390625 12.8223 0.0390625C12.4219 0.0390625 12.1875 0.253906 12.1875 0.654297L12.1875 2.91992L4.72656 2.91992C1.86523 2.91992 0 4.55078 0 7.19727L0 8.24219C0 8.71094 0.351562 9.07227 0.830078 9.07227Z" fill="#000000" fill-opacity="0.85"/>
 </g>
</svg>
